<svg version="1.1" viewBox="0.0 0.0 512.0 512.0" fill="none" stroke="none" stroke-linecap="square"
    stroke-miterlimit="10" xmlns:xlink="http://www.w3.org/1999/xlink"
    xmlns="http://www.w3.org/2000/svg">
    <clipPath id="p.0">
        <path d="m0 0l512.0 0l0 512.0l-512.0 0l0 -512.0z" clip-rule="nonzero" />
    </clipPath>
    <g clip-path="url(#p.0)">
        <path fill="#000000" fill-opacity="0.0" d="m0 0l512.0 0l0 512.0l-512.0 0z"
            fill-rule="evenodd" />
        <defs>
            <linearGradient id="p.1" gradientUnits="userSpaceOnUse"
                gradientTransform="matrix(13.476496472979516 0.0 0.0 13.476496472979516 0.0 0.0)"
                spreadMethod="pad" x1="0.681072985749051" y1="5.519538625198414"
                x2="0.6810242008472477" y2="18.99603509808963">
                <stop offset="0.0" stop-color="#3177ee" />
                <stop offset="1.0" stop-color="#113d8a" />
            </linearGradient>
        </defs>
        <path fill="url(#p.1)"
            d="m9.178477 92.54724l0 0c0 10.030273 55.036663 18.161423 122.92782 18.161423c67.891174 0 122.927826 -8.131149 122.927826 -18.161423l0 0c0 -10.030273 55.03665 -18.161415 122.927826 -18.161415c67.89114 0 122.927826 8.131142 122.927826 18.161415l0 145.29134c0 -10.030273 -55.036682 -18.161407 -122.927826 -18.161407c-67.891174 0 -122.927826 8.131134 -122.927826 18.161407c0 10.030273 -55.03665 18.161423 -122.927826 18.161423c-67.89115 0 -122.92782 -8.131149 -122.92782 -18.161423z"
            fill-rule="evenodd" />
        <defs>
            <linearGradient id="p.2" gradientUnits="userSpaceOnUse"
                gradientTransform="matrix(13.476495712201299 0.0 0.0 13.476495712201299 0.0 0.0)"
                spreadMethod="pad" x1="0.6810730241971389" y1="16.272002738270753"
                x2="0.6810242392925816" y2="29.74849845038375">
                <stop offset="0.0" stop-color="#ffff00" />
                <stop offset="1.0" stop-color="#f1c232" />
            </linearGradient>
        </defs>
        <path fill="url(#p.2)"
            d="m9.178477 237.45276l0 0c0 10.030273 55.036663 18.161407 122.92782 18.161407c67.891174 0 122.927826 -8.131134 122.927826 -18.161407l0 0c0 -10.030273 55.03665 -18.161423 122.927826 -18.161423c67.89114 0 122.927826 8.131149 122.927826 18.161423l0 145.29132c0 -10.030273 -55.036682 -18.161407 -122.927826 -18.161407c-67.891174 0 -122.927826 8.131134 -122.927826 18.161407c0 10.030304 -55.03665 18.161438 -122.927826 18.161438c-67.89115 0 -122.92782 -8.131134 -122.92782 -18.161438z"
            fill-rule="evenodd" />
    </g>
</svg>